# xmcd
#
# Track frame offsets:
#	150
#	12910
#	26146
#	54792
#	72393
#	87680
#	106466
#	117614
#
# Disc length: 1867 seconds
# Revision: 0
# Processed by: cddbd v1.5.2PL0 Copyright (c) Steve Scherf et al.
# Submitted via: dBpowerAMP V12.0
#
DISCID=6d074908
DTITLE=Betty Bonifassi - Lomax
DYEAR=2016
DGENRE=Blues
TTITLE0=Rosie
TTITLE1=Berta
TTITLE2=No More My Lawrds
TTITLE3=Grizzly Bear
TTITLE4=Black Woman
TTITLE5=I Don't Do Nobody
TTITLE6=Linin' Track (Traditional)
TTITLE7=Old Hannah
EXTD=
EXTT0=
EXTT1=
EXTT2=
EXTT3=
EXTT4=
EXTT5=
EXTT6=
EXTT7=
PLAYORDER=
